/* XPM */
static char *Pixmap[] = {
"64 64 256 3",
"000 c black",
"001 c #2A1800",
"002 c #392700",
"003 c #463902",
"004 c #423320",
"005 c #413633",
"006 c #4E4707",
"007 c #4F4210",
"008 c #554704",
"009 c #5D540A",
"010 c #5C5613",
"011 c #4C433B",
"012 c #604C00",
"013 c #655907",
"014 c #665B18",
"015 c #705E1E",
"016 c #614E23",
"017 c #645C23",
"018 c #745F29",
"019 c #6C610B",
"020 c #6C6314",
"021 c #77670A",
"022 c #756B16",
"023 c #7A7218",
"024 c #746326",
"025 c #716C3B",
"026 c #7D7824",
"027 c #5C544D",
"028 c #655F61",
"029 c #6B655C",
"030 c #746C44",
"031 c #7A755C",
"032 c #6C6776",
"033 c #716C7B",
"034 c #7B7883",
"035 c #847817",
"036 c #907D12",
"037 c #836D23",
"038 c #877B25",
"039 c #897A3C",
"040 c #937C37",
"041 c #887A55",
"042 c #917D4D",
"043 c #817C7A",
"044 c #837E85",
"045 c #8D8600",
"046 c #8C811A",
"047 c #928B00",
"048 c #92861C",
"049 c #999308",
"050 c #8B8523",
"051 c #8D873A",
"052 c #958C24",
"053 c #938D30",
"054 c #9A9329",
"055 c #9E9B30",
"056 c #A78F31",
"057 c #A19523",
"058 c #A7932C",
"059 c #A39925",
"060 c #A39C2C",
"061 c #A89D26",
"062 c #AA9D29",
"063 c #A49A32",
"064 c #AFAB09",
"065 c #B2AD01",
"066 c #BAB51D",
"067 c #ABA22A",
"068 c #A8A332",
"069 c #B3A92C",
"070 c #B4A131",
"071 c #B3AC32",
"072 c #B1AB3A",
"073 c #BBA03D",
"074 c #B9AC31",
"075 c #BAB12C",
"076 c #B5B035",
"077 c #B5B139",
"078 c #BBB333",
"079 c #B9B53A",
"080 c #BFB835",
"081 c #BDB93B",
"082 c #918D40",
"083 c #99875B",
"084 c #9B9546",
"085 c #9D945A",
"086 c #89856C",
"087 c #8E8577",
"088 c #968866",
"089 c #958B77",
"090 c #9F9175",
"091 c #A68F49",
"092 c #A79149",
"093 c #A29A44",
"094 c #AE9542",
"095 c #AA934C",
"096 c #A99457",
"097 c #B39A48",
"098 c #B29B54",
"099 c #A59D69",
"100 c #A89460",
"101 c #A6987A",
"102 c #BCA143",
"103 c #B7A050",
"104 c #B4AB5B",
"105 c #BCA55F",
"106 c #AFA86D",
"107 c #ACA470",
"108 c #B1A961",
"109 c #B1A96E",
"110 c #BBA566",
"111 c #B5A277",
"112 c #C0BB0F",
"113 c #C2BE1C",
"114 c #C4AB3A",
"115 c #CDBB2C",
"116 c #C0B732",
"117 c #C2BA35",
"118 c #C2BC3A",
"119 c #CDB43A",
"120 c #CABE34",
"121 c #D0BF2F",
"122 c #D3BC37",
"123 c #C5BA43",
"124 c #CEB253",
"125 c #D7B847",
"126 c #D1B55A",
"127 c #C0AC7F",
"128 c #CAB478",
"129 c #D2B867",
"130 c #C7C21C",
"131 c #C5C221",
"132 c #C7C22A",
"133 c #CAC625",
"134 c #C9C42D",
"135 c #CDCA29",
"136 c #C9C33C",
"137 c #D3C433",
"138 c #D3C738",
"139 c #D3CF30",
"140 c #D3CB3D",
"141 c #DECE37",
"142 c #DACD38",
"143 c #D8D52E",
"144 c #D5D13A",
"145 c #D9D633",
"146 c #DCD13B",
"147 c #DDD933",
"148 c #DDDB3A",
"149 c #E0D137",
"150 c #E2D53D",
"151 c #E1DE37",
"152 c #E4DB3A",
"153 c #EEDF3E",
"154 c #E3E139",
"155 c #C9C642",
"156 c #D1CC42",
"157 c #D1CE48",
"158 c #D5D144",
"159 c #D5D249",
"160 c #DAD444",
"161 c #D8D549",
"162 c #DDD845",
"163 c #DCDA4B",
"164 c #E1DD4B",
"165 c #E1DE50",
"166 c #E5E246",
"167 c #E4E24C",
"168 c #EBE245",
"169 c #E8E54C",
"170 c #ECEA44",
"171 c #ECE94D",
"172 c #E5E351",
"173 c #E8E651",
"174 c #ECEA52",
"175 c #EFEE59",
"176 c #F0EC4B",
"177 c #F0EE53",
"178 c #F0EE58",
"179 c #F4F24C",
"180 c #F8F64F",
"181 c #F3F254",
"182 c #F5F35A",
"183 c #F8F654",
"184 c #F8F65A",
"185 c #FBFA55",
"186 c #FEFE5D",
"187 c #FEFE63",
"188 c #FFFF68",
"189 c #898685",
"190 c #8F8B94",
"191 c #958E82",
"192 c #928F95",
"193 c #9B9588",
"194 c #999595",
"195 c #A39A8A",
"196 c #A49D92",
"197 c #A49F98",
"198 c #A29FA0",
"199 c #AFA38F",
"200 c #ABA498",
"201 c #B4AD80",
"202 c #B2AC9E",
"203 c #BCB698",
"204 c #BEB899",
"205 c #A8A5A5",
"206 c #B5ADA1",
"207 c #B0AEB2",
"208 c #B6B0A4",
"209 c #B5B1AB",
"210 c #BAB2A3",
"211 c #BBB5AA",
"212 c #BEB9AE",
"213 c #B8B6B6",
"214 c #C0B08D",
"215 c #C6B695",
"216 c #C1BCAA",
"217 c #C3BDB3",
"218 c #CBC1AF",
"219 c #C5C0B7",
"220 c #C6C1B9",
"221 c #CAC3B5",
"222 c #CAC4BA",
"223 c #CCC8B6",
"224 c #CDC8BC",
"225 c #D0C2A6",
"226 c #D3CBBB",
"227 c #CBC8C3",
"228 c #D2CCC3",
"229 c #D8D3CA",
"230 c #D4D3D3",
"231 c #D7D7DA",
"232 c #DDD9D1",
"233 c #DBDADC",
"234 c #E3DCCA",
"235 c #E1DDD4",
"236 c #E5E1DA",
"237 c #E9E5DC",
"238 c #ECE8DE",
"239 c #F1EAD8",
"240 c #E1E1E2",
"241 c #E9E6E1",
"242 c #EDEAE2",
"243 c #EBEBED",
"244 c #F1EDE5",
"245 c #F0EEEB",
"246 c #F4F0E5",
"247 c #F3F1EC",
"248 c #FCF7E6",
"249 c #F9F5EC",
"250 c #FEFBEF",
"251 c #F3F2F2",
"252 c #F7F7F8",
"253 c #F8F7F6",
"254 c #FCFAF4",
"255 c #FEFEFE",
"255255255255255255255255255255255255255255255255255255255255255255255255255255255255255255255255255255255255255255255255255255255255255255255255255255255255255255255255255255255255255255255255",
"255255255255255255255255255255255255255255255255255255255255255255255255255255255255255255255254254254254255255255255255255255255255255255255255255255255255255255255255255255255255255255255255",
"255255255255255255255255255255255255255255255255255255255255255255255255255244232221203201106108104104108106201204223235245255255255255255255255255255255255255255255255255255255255255255255255",
"255255255255255255255255255255255255255255255255255255255255255253232210099072131145170179183185186186185185181170148132072107216236255255255255255255255255255255255255255255255255255255255255",
"255255255255255255255255255255255255255255255255255255255241209085066151180186186186186186186186186186186186186186187186186183148075099219247255255255255255255255255255255255255255255255255255",
"255255255255255255255255255255255255255255255255255240196060143180186186186186186163184186177177118164184184182186173187187186187186183139093209247255255255255255255255255255255255255255255255",
"255255255255255255255255255255255255255255255243197057154186186186186186186167158078120156069118069061155117069156140163173187186187186187186145084213255255255255255255255255255255255255255255",
"255255255255255255255255255255255255255255220051143186186186181158173074136075156069059080078120067155067075067075080067067181184184187187186187186113089240255255255255255255255255255255255255",
"255255255255255255255255255255255255245191065183186186163167160075080136067067074078158162162161169181164140118118074156067186136120156182187187187187171053220255255255255255255255255255255255",
"255255255255255255255255255255255233041143186186186186080062071116078076136181166164157081071068055068068077155164177181174186071069117117158173187186187186064205255255255255255255255255255255",
"255255255255255255255255255255227038176186186185167181181057069136177181156068060072155165174181182177177165156072054054155174173118078071075069186187187187187113194254255255255255255255255255",
"255255255255255255255255255227045180186174171136062069182172162173079054155177186186167118077157158081165165172187187177136050068172186075067155186118155187187187133194252255255255255255255255",
"255255255255255255255255227045183186186166052117117155174185079063163186173164155155052046008012012013036019021067155173187186165052068171177186156067078174187187187113198255255255255255255255",
"255255255255255255255231035180186186186186160059155185161054161186173076054021012052155054071077118077068050035021008035155054165187157038158186067071071075182187187187065213255255255255255255",
"255255255255255255243030176186186185186186186171185079072185183140035021072054052155186186187186187187186186178163081118022008057161188182054076181163136078161184187187186052233255255255255255",
"255255255255255255043143186186169067080160174186060156186163023035023067178186186186186186186186187186186187186187187187165038021035074186187077063186069071071156182187187176086251255255255255",
"255255255255255207065186185169078078118160184060163186160021023052164186187186186187186187186187186186187187186178165159184186081035035057161187081060181118120069136187187187131207255255255255",
"255255255255241026183186185117074075161186068164186079021035076186186186186186186186186186186187186187183081050054035002163187187172050035021164187072081177067080117060181187186051243255255255",
"255255255255189143186186162067069136186079161167057019052159186186186186186186187186186187187186186163020072172068026167187186187187184050035048178187054161174067076157187187188145205255255255",
"255255255231047186186185069136057177163081186068035035167186186186186186181156076060068077172184068046136186055050184187187187187187187182052019155188177050183118173188187188187186082243255255",
"255255255189151186186138080067156181068185186177076161186186186186186186054038022002054071075035063168169053050184187187187187187187187187186182187187188155079186178184187184187188135213255255",
"255255240046185186185057136067186118165186186186186186186186186186186186184186186161053022067075146168055054186187187187187187187187187187187188187187187186052182159057069069159187183086255255",
"255255205130186186186164069158181077186186186186186186186186186186186186187186187186186177118007076075023184187187187187187187187187187187187187187187188187156081187158067071178188187060240255",
"255252031179185186166169186186155172186186186186186186186186186186186187186186186187186187187162001026184187187187187187187187187187187187187187188187187188184054186118071160159182188135213255",
"255233047186186166061069155186077186186186186186186186186186186186186186186186187186187186156054008159178187187187187187187187187187187187187187187188187187187068173155067059059156188170193255",
"255207112186186166057074158173156186186186186186186186186186186186186187186187186187186186022053035023022184187187187187187187187187187188187188187187187188188157155160080078155118187185088245",
"255189151186186117057074184157172186186186186186186186186186186186186186186186186186186186068022038023163187187187187187187187187187187187187187187188187188188173071178136167164173188187084230",
"245031179186180052120158187081184186186186186186186186186186186186186187186186187186187186186076001173187187187187187187187187187188187188187188187188187188187182060186074136067069184188072207",
"230039185186168067067155186081186186186186186186186186186186186186186186186187186187186187187155022182187187187187187187187187187187187187188187188187188187188187060177067080078062178188079190",
"207053186179061062067160184118187186186186186186186186186186186186186187186187186187186187186081023181187187187187187187187187188187188187188187188187188188187187060184159071163165187188155032",
"192055186180076080076167182155186186186186186186186186186186186187186186186186186186187186187136013175187187187187187187187187187187187188187188187188188188188187060184188184187188188188155032",
"034068185186186185181186177155186186186186186186186186186186186186186187186187187186186173161052003157187187187188187187187188187188187188187188188187188188188187060184136069118186188188081032",
"033068186186176062069155182123186186186186186186186186186186186186186186186185155050035046050079116035052123159173186187188187187187188187188187188188188188188184060181069116067177188188079044",
"034060186186160061069155184081186186186186186186186186186186186187186187186055003160140160186171141121076068054022035050172188188187188187188188187188188188188174068186117074136187188187068194",
"192053186186180059069136187077186186186186186186186186186186186186186181060008158187186187184142162166168185187182172077013163187188187188188187188188188188188159118186136071078187188187053205",
"209038186186179062156061186079182186186186186186186186186186181171081019035169187186187187183142174168141140187188188187118036068182188187188188188188188188188071172173078069118187188184025220",
"227030180186185078057116184157165186186186186186186186067035052035052160120162169186186186174166182176141144181178174146141121048046186188187188188188188188184054183118069080184188188173027228",
"235029168186186144067118181175081186186186186186186186081006048046069136142137115120138149138118142149162138138152150153121048023079187188188187188188188188161079183069158061184188188120043235",
"237044133186186136059078156186071184186186186186186186186177054054055022002050169184183177184186172068161186172136068038026076174188188187188188187188188187054174165069138156187188187052211237",
"237205049186186180078069075173161157186186186186186186186186186187186186118000003050079184155023014020006020006010077159184188188187188187188188188188188165008078181156057173188188181030226237",
"236222017180186186117069067160186067184186186186186186186186186186186187184156077079022010022163182186178155174186187187188187187188187188188187188188186050160069074116069184188188118089226237",
"235229028144186186166057080158184163118187186186186186186186186187186186186187187186186184186187187187187188187188187187188187187188187188187188188187118035074156078120182188188186026215228237",
"235232194045186186185067062071158185071167186186186186186186186186186186186181186182164174174161172181163177181161174187187188187187188187188188188163054183067069078140187188188158041225228238",
"236229219011166186186176078075069158184059183186186186186186186186186186054019182054021023019035036035021022035021023172187187188187188187188187174046181177075118059177188188186026127218229238",
"237232224044049186186186136069067138182173062184186186186186186186187183020022173035035048023035052035068052023060019155188187187188187188188174048173169067117116163188188188118042215223229244",
"241235227211005162186186179061069078140181164059183186186186186186186186081009181023008019013035048023021019022021021172188187187187188187167048173164069075078059182188188175024128210226235247",
"242236228219087021180186169035069117069069185164059173186186186186187186177161187164172161155123157164155172172155172187187187187188187156052171181120117075140165187187187050098214217228236254",
"247237232220206027069186185177171067069075117186177059156186186186186186186187186187186187187187187187187187187187187187187187187181067067185156067116117116178188188188079040128206224232238255",
"249244235227212195004144186186186158117117067177174185118062167186186186187186187186187186187187186187187187186187187187187184118052158186160075078074158187188188188157024129199217228235251255",
"250247237229219206089008166186186186136067067061118186186171069067163183186186186186186187187186187187186187187187186174080052120184187187178182069061177188187188163015126111208224232241254255",
"255250244235227211199041013171186186136069059078186186186186186171078059078158174184186186186186186186186177164118059059156184187187187187188187182118186188188163014124111200221229236247255255",
"255254249242232219206195042013171186186136074182186186186186186186186185164118067061061067067068067062059059071156177186187187187187187187187187188187188187161014124110196216228236242255255255",
"255255254249241229217200101042009163186186186186186186186186186186186186186186186184181174173169173177184186187187187187187187187187187187187187187188187123015124105195212228232242254255255255",
"255255255254250242228212200101091007136186186186186186186186186186186186186187186186187187186187186187187187186187187187187187187187187187187187188182055037125105193211224235242250255255255255",
"255255255255255254237228211196090096016054179186186186186186186186186186186186186186186186186187186187187186187187187186187187187187187187188187159022056125100195211224235242250255255255255255",
"255255255255255255254236228212200089098039010118185186186186186186186186186186186186187186187186187186186187186187186187187187186187187187173054037125124088196212228235246250255255255255255255",
"255255255255255255255254236229217200191100095018023155185186186186186186186186186187186186187186187186187187186187186187186187188187172063023073125097089200219229237246254255255255255255255255",
"255255255255255255255255254241229222208195088098094024020081171186186186186186186186186186186186186186186186187187187187187182157053046114125102088195211224235238249254255255255255255255255255",
"255255255255255255255255255254242235228217200191083098073040015050081164181186186186187186187186187187187187187184173155055050058119125102083193210223234236246254254255255255255255255255255255",
"255255255255255255255255255255255247237232224212200191088091102073056038038050068077155156157159157155081068054050052070119119114095088193210226234239246249254255255255255255255255255255255255",
"255255255255255255255255255255255255253245236232228217202193087083091073114114074070062058060056062070074114119119119073091083089196211223234239248250254255255255255255255255255255255255255255",
"255255255255255255255255255255255255255255253245241235229224212202196191089088083096096103098098103098095096083088191195200211220229232238248254254255255255255255255255255255255255255255255255",
"255255255255255255255255255255255255255255255255255255254255253252253253251251251251251245251245251251243251251251253253253252255253255255255255255255255255255255255255255255255255255255255255",
"255255255255255255255255255255255255255255255255255255255255255255255255255255255255255255255255255255255255255255255255255255255255255255255255255255255255255255255255255255255255255255255255"
};
