/* XPM */
static char *Pixmap[] = {
"16 16 256 3",
"000 c #BEBA3E",
"001 c #B4AB51",
"002 c #BBB15C",
"003 c #B6A663",
"004 c #BDAF67",
"005 c #BDB061",
"006 c #C3BD3C",
"007 c #C3BF3F",
"008 c #C0BB56",
"009 c #C7C03D",
"010 c #C7C33F",
"011 c #C9C23B",
"012 c #CAC43D",
"013 c #CAC53D",
"014 c #CAC53E",
"015 c #CDC73B",
"016 c #CEC93A",
"017 c #CEC93E",
"018 c #D4CF2B",
"019 c #DEDA28",
"020 c #D5D03C",
"021 c #DAD738",
"022 c #E2DF3E",
"023 c #E3E03B",
"024 c #E7E43A",
"025 c #EDEB36",
"026 c #C4C041",
"027 c #C5C140",
"028 c #C6C241",
"029 c #C6C341",
"030 c #C8C544",
"031 c #C8C646",
"032 c #CAC644",
"033 c #CCC942",
"034 c #CDC942",
"035 c #CEC943",
"036 c #CCC945",
"037 c #CDC946",
"038 c #CFCB44",
"039 c #D0CA40",
"040 c #D2CE45",
"041 c #D4CF44",
"042 c #D1CF49",
"043 c #D0C854",
"044 c #D3CD52",
"045 c #D5D147",
"046 c #D7D146",
"047 c #D7D346",
"048 c #D7D445",
"049 c #D4D14A",
"050 c #D4D14B",
"051 c #D7D449",
"052 c #D8D042",
"053 c #D8D546",
"054 c #D9D547",
"055 c #DBD744",
"056 c #D9D448",
"057 c #D9D649",
"058 c #D8D64A",
"059 c #DAD74A",
"060 c #DEDA41",
"061 c #DFDC40",
"062 c #DAD84C",
"063 c #DBD84F",
"064 c #DCDA4F",
"065 c #DDDA4E",
"066 c #DDDB4F",
"067 c #DEDB4D",
"068 c #DEDD4F",
"069 c #DAD950",
"070 c #DDD854",
"071 c #DEDA54",
"072 c #C7C460",
"073 c #C9C76B",
"074 c #C9C76C",
"075 c #D0CE60",
"076 c #DEDA69",
"077 c #E0DC47",
"078 c #E1DC47",
"079 c #E1DE46",
"080 c #E1DD4C",
"081 c #E0DE52",
"082 c #E0DF5B",
"083 c #E7E546",
"084 c #E3E148",
"085 c #E4E04E",
"086 c #E6E44F",
"087 c #E7E44F",
"088 c #ECEB4A",
"089 c #E4E250",
"090 c #E4E252",
"091 c #E6E353",
"092 c #E6E452",
"093 c #E6E453",
"094 c #E6E552",
"095 c #E6E457",
"096 c #E7E55A",
"097 c #E6E55E",
"098 c #E9E657",
"099 c #EBE952",
"100 c #ECEA52",
"101 c #EDEB53",
"102 c #ECEA55",
"103 c #EDEC56",
"104 c #EFED56",
"105 c #EFEE55",
"106 c #ECEB5A",
"107 c #EFEE5A",
"108 c #F0EE54",
"109 c #F0EE56",
"110 c #F0EF5E",
"111 c #F1F056",
"112 c #F4F357",
"113 c #F3F358",
"114 c #F3F25B",
"115 c #F6F659",
"116 c #F5F55D",
"117 c #F6F55E",
"118 c #F8F75F",
"119 c #FAFA5B",
"120 c #FAF95F",
"121 c #FDFC5B",
"122 c #FFFF5B",
"123 c #FCFC5D",
"124 c #FDFD5C",
"125 c #FEFE5C",
"126 c #FFFF5D",
"127 c #FEFE5E",
"128 c #FFFF5E",
"129 c #FFFF5F",
"130 c #EAE765",
"131 c #E8E772",
"132 c #E9E772",
"133 c #EAE979",
"134 c #FFFF60",
"135 c #FFFF62",
"136 c #FDFD65",
"137 c #FEFE65",
"138 c #FFFF64",
"139 c #FFFF65",
"140 c #FFFF66",
"141 c #FFFF67",
"142 c #FFFF68",
"143 c #FFFF69",
"144 c #AFA58D",
"145 c #BEB989",
"146 c #C0B58E",
"147 c #C2BE91",
"148 c #C1BB9B",
"149 c #C8BBA3",
"150 c #C4BEB6",
"151 c #D7D594",
"152 c #C5C0BF",
"153 c #D7D6B5",
"154 c #E9E88A",
"155 c #EEEC8E",
"156 c #E4E3A5",
"157 c #EAE8A7",
"158 c #E8E8A9",
"159 c #E4E3B4",
"160 c #CFC9C5",
"161 c #D0C7C2",
"162 c #D5CFC5",
"163 c #D9D4CD",
"164 c #D9D5D1",
"165 c #DFD9D5",
"166 c #DFDAD5",
"167 c #DDD9D8",
"168 c #E0DCDB",
"169 c #E3DFDD",
"170 c #E7E6CA",
"171 c #EDECCD",
"172 c #E7E7DE",
"173 c #EFEDDB",
"174 c #E5E3E4",
"175 c #E9E5E1",
"176 c #ECE8E0",
"177 c #ECEAEB",
"178 c #F0EEE1",
"179 c #F0F0E5",
"180 c #F2F1EB",
"181 c #F3F3F0",
"182 c #F0F0F5",
"183 c Gray96",
"184 c #F6F5F6",
"185 c #F8F7F6",
"186 c #FDFBF5",
"187 c #FBFAFD",
"188 c #FBFBFF",
"189 c #FDFCF9",
"190 c #FDFCFA",
"191 c #FDFDFC",
"192 c #FCFCFF",
"193 c #FDFDFF",
"194 c #FFFFFD",
"195 c #FEFEFF",
"196 c #FFFFFE",
"197 c Gray100",
"198 c black",
"199 c black",
"200 c black",
"201 c black",
"202 c black",
"203 c black",
"204 c black",
"205 c black",
"206 c black",
"207 c black",
"208 c black",
"209 c black",
"210 c black",
"211 c black",
"212 c black",
"213 c black",
"214 c black",
"215 c black",
"216 c black",
"217 c black",
"218 c black",
"219 c black",
"220 c black",
"221 c black",
"222 c black",
"223 c black",
"224 c black",
"225 c black",
"226 c black",
"227 c black",
"228 c black",
"229 c black",
"230 c black",
"231 c black",
"232 c black",
"233 c black",
"234 c black",
"235 c black",
"236 c black",
"237 c black",
"238 c black",
"239 c black",
"240 c black",
"241 c black",
"242 c black",
"243 c black",
"244 c black",
"245 c black",
"246 c black",
"247 c black",
"248 c black",
"249 c black",
"250 c black",
"251 c black",
"252 c black",
"253 c black",
"254 c black",
"255 c black",
"197197197197197197184178173180188197197197197197",
"197197197197179157132096095130155171187197197197",
"197197192159083018016013014017061024154181197197",
"197193156025048033029036037032028045021133183197",
"197170019047010058113123103042064026035023158195",
"182131020101111129092007006116139118107057097172",
"153079059125128128135068031139138140137038053151",
"073055089126126129134090081138140140141065093075",
"072077067126124105051085052066098141141045091074",
"147084040121115027009080041046063143110012106148",
"152082015086128134062000030069142136034054076161",
"169145022011087119094049050081117056039100146175",
"186160008060112108101109104102114120099005163196",
"197189150001088122129128134135127078003162190197",
"197197191164144002044071070043004149176194197197",
"197197197197185174167165166168177194197197197197"
};
