/* XPM */
static char *Pixmap[] = {
"32 32 256 3",
"000 c #766B13",
"001 c #7E7214",
"002 c #857815",
"003 c #8D7E44",
"004 c #827C5E",
"005 c #907C4C",
"006 c #8A7F61",
"007 c #8B821D",
"008 c #8D8524",
"009 c #958E26",
"010 c #938D28",
"011 c #998F26",
"012 c #978434",
"013 c #9C8534",
"014 c #96912D",
"015 c #999026",
"016 c #9C9329",
"017 c #A39A2A",
"018 c #A99920",
"019 c #B19A27",
"020 c #B19931",
"021 c #ABA22B",
"022 c #A6A231",
"023 c #AAA432",
"024 c #ADA835",
"025 c #AFAB3A",
"026 c #B5A524",
"027 c #B3A52D",
"028 c #B7A822",
"029 c #B4AA2C",
"030 c #B8AE2F",
"031 c #B6A736",
"032 c #B4AD33",
"033 c #BCB228",
"034 c #B7B137",
"035 c #B4B039",
"036 c #B9B131",
"037 c #BBB334",
"038 c #BBB435",
"039 c #BFB430",
"040 c #BDB534",
"041 c #BAB33A",
"042 c #BDB83D",
"043 c #8C804A",
"044 c #948F5B",
"045 c #9C895F",
"046 c #888267",
"047 c #8C867B",
"048 c #9A8865",
"049 c #95906E",
"050 c #9B9669",
"051 c #A19C55",
"052 c #B39746",
"053 c #B0974C",
"054 c #B59B5A",
"055 c #AD9B6B",
"056 c #B29B62",
"057 c #B0A345",
"058 c #A9A476",
"059 c #AFA07C",
"060 c #B5A176",
"061 c #B9B46B",
"062 c #C3BB2E",
"063 c #C0B732",
"064 c #C1B936",
"065 c #C5BD37",
"066 c #C2BC3B",
"067 c #C0BC41",
"068 c #C2BC4A",
"069 c #C6C03B",
"070 c #C6C13C",
"071 c #CBC534",
"072 c #CAC33B",
"073 c #C9C23C",
"074 c #CAC53D",
"075 c #CFC53A",
"076 c #CCC53E",
"077 c #CDC93C",
"078 c #D0C537",
"079 c #D0CA3F",
"080 c #D5D13C",
"081 c #D8D43F",
"082 c #E6E43A",
"083 c #E8E73B",
"084 c #EFEE3C",
"085 c #C5C242",
"086 c #CAC642",
"087 c #CAC844",
"088 c #CEC940",
"089 c #CDC945",
"090 c #C5C256",
"091 c #D2CD43",
"092 c #D1CE48",
"093 c #D2D047",
"094 c #D7D243",
"095 c #D5D145",
"096 c #D7D447",
"097 c #D4D148",
"098 c #D9D445",
"099 c #D9D549",
"100 c #DFDD42",
"101 c #DDDA4C",
"102 c #D3D150",
"103 c #D2D055",
"104 c #D6D456",
"105 c #D9D753",
"106 c #DDDB52",
"107 c #CCCA6D",
"108 c #D0CD70",
"109 c #DBD968",
"110 c #DBD86E",
"111 c #D2D177",
"112 c #E5DC45",
"113 c #E0DD4C",
"114 c #E0DE51",
"115 c #E1DF54",
"116 c #E3E04A",
"117 c #E3E04D",
"118 c #E5E14A",
"119 c #E4E14E",
"120 c #E6E448",
"121 c #E6E44D",
"122 c #E9E047",
"123 c #EBE44B",
"124 c #EAE84D",
"125 c #ECEB4F",
"126 c #EEED48",
"127 c #EEED4D",
"128 c #E4E251",
"129 c #E7E65E",
"130 c #E8E652",
"131 c #EAE851",
"132 c #E9E856",
"133 c #EDEA50",
"134 c #ECEA54",
"135 c #EDEC55",
"136 c #ECEB58",
"137 c #F0EE52",
"138 c #F0EF5C",
"139 c #F7F645",
"140 c #F6F54E",
"141 c #FBFB46",
"142 c #F8F849",
"143 c #F9F94E",
"144 c #FFFF4B",
"145 c #FDFD4D",
"146 c #F3F254",
"147 c #F2F159",
"148 c #F2F15C",
"149 c #F4F359",
"150 c #F4F35C",
"151 c #F5F559",
"152 c #F5F55D",
"153 c #F8F75B",
"154 c #F9F852",
"155 c #FAF955",
"156 c #FEFD51",
"157 c #FFFF55",
"158 c #FAF95A",
"159 c #F9F95D",
"160 c #FBFC5F",
"161 c #FDFD59",
"162 c #FEFE5D",
"163 c #F6F660",
"164 c #F8F761",
"165 c #FEFE63",
"166 c #FFFF68",
"167 c #938E86",
"168 c #9D958E",
"169 c #A79D8D",
"170 c #A89E8D",
"171 c #A09C93",
"172 c #A59FA2",
"173 c #AFA181",
"174 c #ABA28F",
"175 c #AFA79B",
"176 c #ACA996",
"177 c #B2A789",
"178 c #BBAD8C",
"179 c #B1AA9C",
"180 c #B9AD94",
"181 c #BEB088",
"182 c #BEB094",
"183 c #BEB39D",
"184 c #ACA6A1",
"185 c #ADA6A8",
"186 c #B6AEA0",
"187 c #B7B0A4",
"188 c #BAB2A2",
"189 c #BCB5A8",
"190 c #C1B287",
"191 c #C0B18A",
"192 c #C1BF94",
"193 c #C6B9A7",
"194 c #C2BDB3",
"195 c #C4BFC2",
"196 c #CAC79A",
"197 c #DAD797",
"198 c #DAD798",
"199 c #DDD993",
"200 c #C4C2A7",
"201 c #C6C4AF",
"202 c #C8C0AD",
"203 c #C9C8A9",
"204 c #CFCCAB",
"205 c #C6C1B6",
"206 c #C7C3B9",
"207 c #C8C6B1",
"208 c #C9C2B8",
"209 c #CDCCB0",
"210 c #CDC8BF",
"211 c #D2CEA6",
"212 c #D2C9BC",
"213 c #D5D2AE",
"214 c #DAD7A7",
"215 c #DBD8A8",
"216 c #C5C4C7",
"217 c #C9C4C0",
"218 c #CFCDC6",
"219 c #CCCBCA",
"220 c #D0CCC4",
"221 c #D4D1C9",
"222 c #D5D2CC",
"223 c #DAD4CD",
"224 c #DDDBC0",
"225 c #DEDCC2",
"226 c #DCD7D4",
"227 c #DDDAD4",
"228 c #E1DCD3",
"229 c #E4E0D9",
"230 c #E6E2DC",
"231 c #E7E4DD",
"232 c #E9E3D3",
"233 c #EAE6DB",
"234 c #E9E7DF",
"235 c #E1E0E1",
"236 c #E6E4E3",
"237 c #E7E6E9",
"238 c #E9E6E0",
"239 c #E8E7E9",
"240 c #EFEBE5",
"241 c #EBEAEC",
"242 c #ECEAE9",
"243 c #EDEDF4",
"244 c #F6F3EC",
"245 c #F8F5EF",
"246 c #FDF9EF",
"247 c #F2F2F5",
"248 c #F6F5F1",
"249 c #F6F5F7",
"250 c #FAF7F0",
"251 c #F8F7F8",
"252 c #FBF9F5",
"253 c #FFFEFA",
"254 c #FEFEFE",
"255 c black",
"254254254254254254254254254254254254254254254254254254254254254254254254254254254254254254254254",
"254254254254254254254254254254254249231224214197199198215225234251254254254254254254254254254254",
"254254254254254254254254254236211109126139145156140157145142127110213242254254254254254254254254",
"254254254254254254254241196120142154133088076073037076072095147162145115204247254254254254254254",
"254254254254254254221104144118074064040069076074091070066074119088119162143108235254254254254254",
"254254254254254207082154113099066094093099093096099101099093097088064073152161105227254254254254",
"254254254254201084161064070117096101074067021008016011017087101093086131037099162105235254254254",
"254254254218083154131146096101088011042087151159158151130092008041132086096037130162107247254254",
"254254237102154040091099117032016135162165162165165149106086136041016113089091030114143203254254",
"254254192144091040113099015066162162149119130159097066023092165165089015136089077114166106239254",
"254235100146029096113158101162162162093024009021075042101165165165165148165114113128128143209254",
"254200141137101101155162162162162162165162153085017106165165165165165165165165092093037158111243",
"243107156030101117162162162162162162162165162025007132165165165165165166165166101088032101129219",
"216114137029114135162162162162162162165162162041014150165165165165165165166165132095088096138176",
"171125077032128151161162162162162162162162165128085165165165165166165166165166138097069097163050",
"046137118113119153161162162162162162165162152086025165165166165165166165166166138101101164164044",
"004146116040114151162162162162162165130024064091039041085092164166165166166166136096029136163049",
"047137120032113135162162162158149095023147165133122122153106032136166166165166106113030152136167",
"172113151029119128162162162034002017078118133112118081123112026024165166166166093079069166103185",
"195090157037091099161162162160113101010023096089023035024042106165166166166128066076099166061223",
"226058156094036130119162162162162165158128097115160147164166165166165166165034040065163137177228",
"229184100155036076099146162162162162086101034032034034032097166165166165092098030101166068193229",
"230217051157098021100095146162162162022042000001007007001067166165165097094063064165132055212238",
"240223168079146077027116094119162165158160149147147150150165165138076091065072163160057182223248",
"250231194006120162065027130124091121158162165165165165160134093099153119036160166041060208238254",
"253244223175043124124086161162162130098095095096096091091113153165165165160164041056189228252254",
"254253244220169003098162162162162162162162159153159160165165165165165166136031054186223245254254",
"254254254244210170005032137162162162162165162162165162165162165165164089020056187227245254254254",
"254254254254244221179048012038121158162162162165162165165160134089027052173205233246254254254254",
"254254254254254252230206174045013018033071080081080077062028019053059202232244253254254254254254",
"254254254254254254254248238222194188180178181181190191182183194220231246253254254254254254254254",
"254254254254254254254254254254254254254254254254254254254254254254254254254254254254254254254254"
};
